<?xml version="1.0" standalone="no"?>
<!DOCTYPE svg PUBLIC "-//W3C//DTD SVG 20010904//EN"
 "http://www.w3.org/TR/2001/REC-SVG-20010904/DTD/svg10.dtd">
<svg version="1.0" xmlns="http://www.w3.org/2000/svg"
 width="398.000000pt" height="127.000000pt" viewBox="0 0 398.000000 127.000000"
 preserveAspectRatio="xMidYMid meet">
<metadata>
Created by potrace 1.10, written by Peter Selinger 2001-2011
</metadata>
<g transform="translate(0.000000,127.000000) scale(0.100000,-0.100000)"
fill="#ee3b40" stroke="none">
<path d="M3192 1245 c-224 -63 -396 -238 -452 -460 -11 -44 -20 -86 -20 -92 0
-9 16 -13 50 -13 49 0 49 0 55 38 31 183 162 344 337 413 85 33 201 44 289 27
104 -21 208 -79 283 -158 59 -63 120 -166 132 -222 2 -12 7 -36 10 -53 8 -38
7 -150 0 -193 -19 -101 -93 -231 -171 -300 -60 -52 -167 -107 -241 -122 -53
-11 -193 -9 -239 3 -126 33 -241 114 -313 219 -32 47 -76 138 -66 138 2 0 0 9
-6 21 -6 11 -13 32 -15 47 -1 15 -3 32 -4 37 -1 13 -101 13 -101 0 1 -5 7 -37
16 -70 8 -33 16 -67 18 -75 15 -61 97 -195 155 -250 37 -36 129 -99 171 -117
109 -48 111 -48 280 -48 l165 0 75 36 c144 69 247 164 307 283 29 58 65 156
56 156 -3 0 -1 6 6 13 8 10 7 17 -1 25 -9 9 -9 12 0 12 8 0 11 15 11 43 -2 32
-3 35 -6 12 -2 -16 -8 -39 -13 -50 -5 -11 -21 -56 -35 -100 -34 -103 -91 -191
-173 -265 -85 -76 -136 -103 -256 -134 -118 -31 -165 -32 -271 -6 -105 26
-147 45 -223 97 -118 83 -225 245 -239 361 -5 48 -4 52 15 52 16 0 22 -10 31
-51 31 -141 156 -297 291 -362 82 -39 188 -67 254 -67 63 0 188 35 259 72 86
45 195 156 236 239 108 221 68 472 -104 645 -75 76 -172 127 -298 156 -81 18
-99 20 -152 9 -206 -41 -360 -145 -438 -296 -11 -22 -30 -71 -42 -110 -17 -56
-26 -71 -44 -73 -24 -4 -24 -5 1 93 35 140 167 299 302 365 84 41 198 70 277
70 72 0 197 -29 264 -61 114 -54 217 -156 278 -274 8 -17 25 -62 38 -100 12
-39 25 -75 30 -80 4 -6 9 -26 12 -45 l4 -35 1 37 c1 20 -3 40 -8 43 -8 5 -8
11 0 20 6 8 7 15 1 17 -5 1 -11 19 -14 39 -14 112 -146 291 -268 365 -116 70
-170 86 -314 90 -95 3 -144 0 -183 -11z"/>
<path d="M585 730 l0 -340 47 0 47 0 3 340 3 340 -50 0 -50 0 0 -340z m75 -5
l0 -315 -25 0 -25 0 0 315 0 315 25 0 25 0 0 -315z"/>
<path d="M1990 1020 l0 -50 50 0 50 0 0 50 0 50 -50 0 -50 0 0 -50z m80 0 c0
-15 -7 -20 -25 -20 -18 0 -25 5 -25 20 0 15 7 20 25 20 18 0 25 -5 25 -20z"/>
<path d="M2330 975 l0 -95 -45 0 -45 0 0 -50 0 -50 45 0 45 0 0 -194 0 -194
50 -4 50 -3 0 198 0 197 50 0 50 0 0 51 0 51 -50 -4 -50 -3 0 98 0 97 -50 0
-50 0 0 -95z m80 -18 c0 -93 7 -107 57 -107 28 0 33 -3 33 -24 0 -21 -5 -25
-36 -28 -21 -2 -41 -10 -45 -18 -5 -8 -11 -95 -15 -192 -6 -162 -8 -178 -24
-178 -16 0 -18 16 -24 178 -4 97 -10 184 -15 192 -4 8 -24 16 -45 18 -31 3
-36 7 -36 28 0 20 5 24 32 24 54 0 68 22 68 112 0 77 0 78 25 78 25 0 25 -1
25 -83z"/>
<path d="M3260 1063 c-14 -2 -57 -20 -95 -38 -155 -74 -250 -223 -249 -390 0
-131 41 -226 135 -317 167 -162 421 -164 594 -6 95 87 137 179 140 311 2 65
-2 101 -15 138 -20 55 -67 139 -77 139 -4 0 -21 -14 -39 -31 l-32 -31 34 -64
c31 -59 33 -70 31 -147 -2 -61 -8 -94 -26 -131 -70 -149 -245 -235 -390 -192
-111 33 -186 98 -233 202 -33 75 -30 193 7 270 36 73 87 124 161 160 51 25 70
29 144 29 85 0 130 -11 181 -46 25 -18 26 -17 58 18 39 43 36 49 -61 94 -62
28 -85 33 -158 35 -47 1 -96 0 -110 -3z m178 -28 c67 -16 142 -50 142 -64 0
-5 -6 -13 -13 -19 -10 -8 -30 -4 -78 15 -85 35 -145 40 -222 19 -123 -34 -227
-131 -262 -246 -26 -87 -18 -199 21 -270 39 -71 102 -132 172 -167 50 -25 68
-28 153 -28 89 0 100 2 163 34 75 38 132 96 168 169 20 41 23 62 23 157 0 95
-4 116 -23 153 -18 34 -21 47 -11 58 18 22 23 18 54 -43 36 -74 46 -200 22
-284 -36 -121 -156 -247 -270 -281 -72 -22 -203 -17 -275 11 -70 26 -158 99
-198 162 -81 129 -84 297 -8 427 60 103 140 164 254 193 82 22 110 22 188 4z"/>
<path d="M182 865 c-62 -19 -115 -59 -143 -108 -23 -41 -24 -50 -29 -299 l-5
-256 48 -4 47 -3 0 121 0 121 48 -23 c161 -79 358 59 339 240 -10 104 -76 182
-176 210 -67 19 -73 19 -129 1z m153 -33 c92 -46 124 -98 125 -200 0 -73 -22
-125 -71 -166 -70 -59 -156 -72 -233 -34 -68 33 -76 21 -76 -108 l0 -104 -30
0 -30 0 0 218 c0 119 4 232 10 251 38 132 187 202 305 143z"/>
<path d="M163 775 c-47 -29 -83 -92 -83 -146 0 -45 37 -108 79 -136 47 -32
125 -32 171 0 52 35 73 70 77 129 5 71 -25 124 -87 156 -58 29 -105 28 -157
-3z m167 -25 c85 -61 76 -201 -17 -245 -147 -71 -283 115 -168 230 51 51 126
57 185 15z"/>
<path d="M956 865 c-161 -45 -228 -239 -128 -374 69 -93 191 -126 291 -79 l51
25 0 -23 c0 -22 4 -24 50 -24 l51 0 -1 133 c-1 166 -15 214 -79 278 -33 34
-62 51 -101 63 -62 19 -69 19 -134 1z m159 -32 c43 -22 84 -62 106 -105 16
-31 19 -59 19 -178 l0 -140 -25 0 c-14 0 -25 5 -25 10 0 6 -6 17 -12 24 -10
11 -22 9 -63 -10 -87 -41 -182 -24 -250 44 -63 63 -81 157 -46 237 27 61 45
81 96 109 70 37 136 40 200 9z"/>
<path d="M950 778 c-61 -31 -90 -77 -90 -143 0 -91 61 -155 155 -163 48 -4 61
-1 96 22 89 59 103 173 31 250 -55 58 -120 70 -192 34z m134 -18 c22 -11 50
-32 61 -47 25 -36 26 -119 2 -157 -41 -61 -124 -83 -193 -50 -93 44 -99 186
-11 246 46 31 90 33 141 8z"/>
<path d="M1532 863 c-60 -18 -117 -68 -147 -128 -17 -33 -21 -65 -23 -192 l-3
-153 50 0 51 0 0 136 c0 155 10 190 68 229 62 42 155 22 199 -43 15 -23 19
-52 21 -177 l4 -150 49 3 49 4 0 133 c0 164 -15 218 -76 280 -31 31 -58 46
-101 58 -70 20 -73 20 -141 0z m117 -14 c63 -14 125 -61 150 -112 18 -38 21
-62 21 -185 0 -135 -1 -142 -20 -142 -11 0 -21 1 -21 3 -1 1 -4 65 -8 142 -5
127 -8 143 -29 170 -76 97 -198 97 -274 0 -21 -27 -24 -44 -29 -170 -4 -77 -7
-141 -8 -142 -1 -2 -10 -3 -21 -3 -19 0 -20 7 -20 143 0 128 2 147 23 187 23
48 103 105 156 113 14 2 28 5 31 5 3 1 25 -3 49 -9z"/>
<path d="M1990 635 l0 -245 50 0 50 0 0 245 0 245 -50 0 -50 0 0 -245z m80 -5
l0 -220 -25 0 -25 0 0 220 0 220 25 0 25 0 0 -220z"/>
<path d="M3290 869 c0 -4 -12 -9 -27 -12 -16 -3 -45 -20 -66 -37 -79 -67 -109
-189 -68 -280 19 -43 68 -107 76 -99 1 2 5 61 6 131 4 119 6 128 29 153 55 59
130 68 193 25 118 -81 56 -268 -86 -258 l-47 3 0 -52 0 -53 53 0 c75 0 150 41
196 105 32 44 36 57 39 126 3 61 0 84 -16 116 -30 58 -92 110 -155 128 -51 15
-127 17 -127 4z m177 -55 c68 -41 106 -116 100 -195 -8 -97 -66 -167 -163
-195 -58 -17 -74 -13 -74 15 0 14 11 20 42 25 141 23 195 180 99 290 -70 79
-209 59 -266 -39 -21 -35 -25 -55 -25 -126 -1 -77 -2 -82 -16 -64 -49 65 -38
179 24 248 76 84 183 100 279 41z"/>
<path d="M3316 661 c-23 -26 -17 -52 16 -70 24 -14 28 -14 47 3 23 21 27 56 9
74 -18 18 -53 14 -72 -7z m59 -31 c0 -8 -10 -16 -22 -18 -18 -3 -23 2 -23 18
0 16 5 21 23 18 12 -2 22 -10 22 -18z"/>
</g>
</svg>
